<svg class="svg-canvas" viewBox="0 0 800 600" width="1600" height="1200" preserveAspectRatio="none" version="1.1" xmlns="http://www.w3.org/2000/svg" xmlns:xlink="http://www.w3.org/1999/xlink">
      <!--滤镜-->
      <defs></defs>
    
      <!-- 背景 -->
      <g id="background">
          <rect x="0" y="0" fill="#ffffff" width="800" height="600"></rect>
          
        </g>
    
      <!--元素-->
      
              <g id="shape_7LEfvKrixq" ref="shape_7LEfvKrixq" key="shape_7LEfvKrixq" mask="">
                <g transform="translate(23.25602770483522,189.3857939948807) rotate(0,376.7439722951648,164.05117836343283) scale(1,1)" style="opacity: 1;mix-blend-mode: undefined;" filter="">
                  <!--普通元素-->
                  <svg xmlns="http://www.w3.org/2000/svg" version="1.1" xmlns:xlink="http://www.w3.org/1999/xlink" width="753.4879445903297" height="328.10235672686565" viewBox="0 0 1241.685342022814 540.685342022814" data-ligature="true" data-parent="shape_7LEfvKrixq"><g data-role="text" data-width="790.02042147438" data-height="90" transform="translate(225.832460274217, 225.342671011407)"><path d="M79.84-26.63L79.84-26.63L79.84-15.95Q79.84-13.75 78.26-12.21L78.26-12.21L67.63-1.58Q66.09 0 63.85 0L63.85 0L10.64 0Q8.44 0 6.88-1.56Q5.32-3.12 5.32-5.32L5.32-5.32Q5.32-7.52 6.88-9.08Q8.44-10.64 10.64-10.64L10.64-10.64L61.65-10.64L69.21-18.19L69.21-21.31L10.64-21.31Q8.44-21.31 6.88-22.87Q5.32-24.43 5.32-26.63L5.32-26.63L5.32-37.26Q5.32-39.46 6.89-41.04L6.89-41.04L17.53-51.67Q19.07-53.22 21.27-53.22L21.27-53.22L74.52-53.22Q76.72-53.22 78.28-51.66Q79.84-50.10 79.84-47.90L79.84-47.90Q79.84-45.70 78.28-44.14Q76.72-42.58 74.52-42.58L74.52-42.58L23.51-42.58L15.95-35.06L15.95-31.94L74.52-31.94Q76.72-31.94 78.28-30.39Q79.84-28.83 79.84-26.63Z" transform="translate(0 72) " fill="rgb(0, 0, 0)" stroke="rgb(0, 0, 0)" stroke-width="0.125" data-glyph-w="83.15900894431302" data-glyph-h="85.52564453125" data-glyph-ascender="70.1589013671875" data-glyph-descender="-15.3667431640625" data-kerning="0"></path><path d="M79.80-47.93L79.80-47.93L79.80-5.35Q79.80-3.15 78.25-1.58Q76.69 0 74.49 0L74.49 0Q72.29 0 70.73-1.58Q69.17-3.15 69.17-5.35L69.17-5.35L69.17-21.31L15.95-21.31L15.95-5.35Q15.95-3.15 14.39-1.58Q12.84 0 10.64 0L10.64 0Q8.44 0 6.88-1.58Q5.32-3.15 5.32-5.35L5.32-5.35L5.32-47.93Q5.32-50.13 6.88-51.69Q8.44-53.25 10.64-53.25L10.64-53.25Q12.84-53.25 14.39-51.69Q15.95-50.13 15.95-47.93L15.95-47.93L15.95-31.94L69.17-31.94L69.17-47.93Q69.17-50.13 70.73-51.69Q72.29-53.25 74.49-53.25L74.49-53.25Q76.69-53.25 78.23-51.71Q79.77-50.17 79.80-47.93Z" transform="translate(83.15900894431302 72) " fill="rgb(0, 0, 0)" stroke="rgb(0, 0, 0)" stroke-width="0.125" data-glyph-w="83.15900894431302" data-glyph-h="85.52564453125" data-glyph-ascender="70.1589013671875" data-glyph-descender="-15.3667431640625" data-kerning="0"></path><path d="M15.95-10.67L74.52-10.67Q76.72-10.67 78.28-9.11Q79.84-7.56 79.84-5.35L79.84-5.35Q79.84-3.15 78.28-1.58Q76.72 0 74.52 0L74.52 0L10.64 0Q8.44 0 6.88-1.58Q5.32-3.15 5.32-5.35L5.32-5.35L5.32-47.93Q5.32-50.13 6.88-51.69Q8.44-53.25 10.64-53.25L10.64-53.25L74.52-53.25Q76.72-53.25 78.28-51.69Q79.84-50.13 79.84-47.93L79.84-47.93Q79.84-45.73 78.28-44.17Q76.72-42.62 74.52-42.62L74.52-42.62L15.95-42.62L15.95-31.94L63.89-31.94Q66.09-31.94 67.65-30.39Q69.21-28.83 69.21-26.63L69.21-26.63Q69.21-24.43 67.65-22.87Q66.09-21.31 63.89-21.31L63.89-21.31L15.95-21.31L15.95-10.67Z" transform="translate(166.31801788862603 72) " fill="rgb(0, 0, 0)" stroke="rgb(0, 0, 0)" stroke-width="0.125" data-glyph-w="83.15900894431302" data-glyph-h="85.52564453125" data-glyph-ascender="70.1589013671875" data-glyph-descender="-15.3667431640625" data-kerning="0"></path><path d="M0,0Z" transform="translate(249.47702683293903 72) " fill="rgb(0, 0, 0)" stroke="rgb(0, 0, 0)" stroke-width="0.125" data-glyph-w="39.58934097556302" data-glyph-h="85.52564453125" data-glyph-ascender="70.1589013671875" data-glyph-descender="-15.3667431640625" data-kerning="0"></path><path d="M79.84-26.63L79.84-26.63L79.84-15.95Q79.84-13.75 78.26-12.21L78.26-12.21L67.63-1.58Q66.09 0 63.85 0L63.85 0L10.64 0Q8.44 0 6.88-1.56Q5.32-3.12 5.32-5.32L5.32-5.32Q5.32-7.52 6.88-9.08Q8.44-10.64 10.64-10.64L10.64-10.64L61.65-10.64L69.21-18.19L69.21-21.31L10.64-21.31Q8.44-21.31 6.88-22.87Q5.32-24.43 5.32-26.63L5.32-26.63L5.32-37.26Q5.32-39.46 6.89-41.04L6.89-41.04L17.53-51.67Q19.07-53.22 21.27-53.22L21.27-53.22L74.52-53.22Q76.72-53.22 78.28-51.66Q79.84-50.10 79.84-47.90L79.84-47.90Q79.84-45.70 78.28-44.14Q76.72-42.58 74.52-42.58L74.52-42.58L23.51-42.58L15.95-35.06L15.95-31.94L74.52-31.94Q76.72-31.94 78.28-30.39Q79.84-28.83 79.84-26.63Z" transform="translate(289.06636780850204 72) " fill="rgb(0, 0, 0)" stroke="rgb(0, 0, 0)" stroke-width="0.125" data-glyph-w="83.15900894431302" data-glyph-h="85.52564453125" data-glyph-ascender="70.1589013671875" data-glyph-descender="-15.3667431640625" data-kerning="0"></path><path d="M79.80-47.93L79.80-47.93L79.80-5.35Q79.80-3.15 78.25-1.58Q76.69 0 74.49 0L74.49 0Q72.29 0 70.73-1.58Q69.17-3.15 69.17-5.35L69.17-5.35L69.17-21.31L15.95-21.31L15.95-5.35Q15.95-3.15 14.39-1.58Q12.84 0 10.64 0L10.64 0Q8.44 0 6.88-1.58Q5.32-3.15 5.32-5.35L5.32-5.35L5.32-47.93Q5.32-50.13 6.88-51.69Q8.44-53.25 10.64-53.25L10.64-53.25Q12.84-53.25 14.39-51.69Q15.95-50.13 15.95-47.93L15.95-47.93L15.95-31.94L69.17-31.94L69.17-47.93Q69.17-50.13 70.73-51.69Q72.29-53.25 74.49-53.25L74.49-53.25Q76.69-53.25 78.23-51.71Q79.77-50.17 79.80-47.93Z" transform="translate(372.22537675281507 72) " fill="rgb(0, 0, 0)" stroke="rgb(0, 0, 0)" stroke-width="0.125" data-glyph-w="83.15900894431302" data-glyph-h="85.52564453125" data-glyph-ascender="70.1589013671875" data-glyph-descender="-15.3667431640625" data-kerning="0"></path><path d="M47.90-10.67L74.52-10.67Q76.72-10.67 78.28-9.11Q79.84-7.56 79.84-5.35L79.84-5.35Q79.84-3.15 78.28-1.58Q76.72 0 74.52 0L74.52 0L10.64 0Q8.44 0 6.88-1.58Q5.32-3.15 5.32-5.35L5.32-5.35Q5.32-7.56 6.88-9.11Q8.44-10.67 10.64-10.67L10.64-10.67L37.26-10.67L37.26-42.62L10.64-42.62Q8.44-42.62 6.88-44.17Q5.32-45.73 5.32-47.93L5.32-47.93Q5.32-50.13 6.88-51.69Q8.44-53.25 10.64-53.25L10.64-53.25L74.52-53.25Q76.72-53.25 78.28-51.69Q79.84-50.13 79.84-47.93L79.84-47.93Q79.84-45.73 78.28-44.17Q76.72-42.62 74.52-42.62L74.52-42.62L47.90-42.62L47.90-10.67Z" transform="translate(455.3843856971281 72) " fill="rgb(0, 0, 0)" stroke="rgb(0, 0, 0)" stroke-width="0.125" data-glyph-w="83.15900894431302" data-glyph-h="85.52564453125" data-glyph-ascender="70.1589013671875" data-glyph-descender="-15.3667431640625" data-kerning="0"></path><path d="M15.95-10.67L74.52-10.67Q76.72-10.67 78.28-9.11Q79.84-7.56 79.84-5.35L79.84-5.35Q79.84-3.15 78.28-1.58Q76.72 0 74.52 0L74.52 0L10.64 0Q8.44 0 6.88-1.58Q5.32-3.15 5.32-5.35L5.32-5.35L5.32-47.93Q5.32-50.13 6.88-51.69Q8.44-53.25 10.64-53.25L10.64-53.25L74.52-53.25Q76.72-53.25 78.28-51.69Q79.84-50.13 79.84-47.93L79.84-47.93Q79.84-45.73 78.28-44.17Q76.72-42.62 74.52-42.62L74.52-42.62L15.95-42.62L15.95-31.94L63.89-31.94Q66.09-31.94 67.65-30.39Q69.21-28.83 69.21-26.63L69.21-26.63Q69.21-24.43 67.65-22.87Q66.09-21.31 63.89-21.31L63.89-21.31L15.95-21.31L15.95-10.67Z" transform="translate(538.5433946414411 72) " fill="rgb(0, 0, 0)" stroke="rgb(0, 0, 0)" stroke-width="0.125" data-glyph-w="83.15900894431302" data-glyph-h="85.52564453125" data-glyph-ascender="70.1589013671875" data-glyph-descender="-15.3667431640625" data-kerning="0"></path><path d="M15.95-10.67L74.49-10.67Q76.76-10.60 78.28-9.08Q79.80-7.56 79.80-5.35L79.80-5.35Q79.80-3.15 78.25-1.58Q76.69 0 74.49 0L74.49 0L10.64 0Q8.44 0 6.88-1.58Q5.32-3.15 5.32-5.35L5.32-5.35L5.32-47.93Q5.32-50.13 6.88-51.69Q8.44-53.25 10.64-53.25L10.64-53.25Q12.84-53.25 14.39-51.69Q15.95-50.13 15.95-47.93L15.95-47.93L15.95-10.67Z" transform="translate(621.702403585754 72) " fill="rgb(0, 0, 0)" stroke="rgb(0, 0, 0)" stroke-width="0.125" data-glyph-w="83.15900894431302" data-glyph-h="85.52564453125" data-glyph-ascender="70.1589013671875" data-glyph-descender="-15.3667431640625" data-kerning="0"></path><path d="M15.95-10.67L51.01-10.67L66.97-26.63L51.01-42.62L15.95-42.62L15.95-10.67ZM56.99-51.67L78.26-30.40Q79.84-28.83 79.84-26.63L79.84-26.63Q79.84-24.43 78.26-22.89L78.26-22.89L56.96-1.58Q55.42 0 53.22 0L53.22 0L10.64 0Q9.10 0 7.89-0.81L7.89-0.81Q5.32-2.46 5.32-5.35L5.32-5.35L5.32-47.93Q5.32-50.13 6.88-51.69Q8.44-53.25 10.64-53.25L10.64-53.25L53.22-53.25Q55.42-53.25 56.99-51.67L56.99-51.67Z" transform="translate(704.861412530067 72) " fill="rgb(0, 0, 0)" stroke="rgb(0, 0, 0)" stroke-width="0.125" data-glyph-w="83.15900894431302" data-glyph-h="85.52564453125" data-glyph-ascender="70.1589013671875" data-glyph-descender="-15.3667431640625" data-kerning="0"></path></g></svg>
                </g>
              </g>
              <g id="shape_2NR4492Dii" ref="shape_2NR4492Dii" key="shape_2NR4492Dii" mask="">
                <g transform="translate(335.3919024720272,198.88751397326578) rotate(0,64.61241242802024,56.37448247848386) scale(1,1)" style="opacity: 1;mix-blend-mode: undefined;" filter="">
                  <!--普通元素-->
                  <svg version="1.1" id="图层_1" xmlns="http://www.w3.org/2000/svg" xmlns:xlink="http://www.w3.org/1999/xlink" x="0px" y="0px" width="129.22482485604047" height="112.74896495696773" viewBox="1.9000000953674316 1.5 105.0999984741211 91.69999694824219" style="enable-background:new 0 0 109 95;" xml:space="preserve" class="style-removed" preserveAspectRatio="none" data-parent="shape_2NR4492Dii">

<g>
	<g>
		<g>
			<path d="M44.6,93.2L1.9,93l20.5-37.2l23.6-0.5l-8.8,17l19.1,0.4L44.6,93.2z M7.8,89.5l34.7,0.2l7.8-13.6l-18.9-0.4
				l8.7-16.7l-15.7,0.3L7.8,89.5z" fill="#A7A7A7" stroke-width="0"></path>
		</g>
		<g>
			<polygon points="40,85.4 15.3,85.3 27,63.6 38.9,63.4 39,66.9 29.2,67.1 21.2,81.8 37.9,81.8 42.8,73.3 45.9,75.1 
							" fill="#A7A7A7" stroke-width="0"></polygon>
		</g>
	</g>
</g>
<g>
	<g>
		<g>
			<path d="M64.5,92.9L52.3,72.6l19.1-0.9L62.2,55l23.6-0.1L107,92L64.5,92.9z M58.4,75.9l8.1,13.4l34.5-0.7L83.8,58.5
				l-15.6,0.1l9.1,16.5L58.4,75.9z" fill="#A7A7A7" stroke-width="0"></path>
		</g>
		<g>
			<polygon points="69,85 62.8,74.8 65.8,73 70.9,81.4 87.6,80.9 79.3,66.4 69.5,66.4 69.5,62.9 81.4,62.9 93.6,84.3 
							" fill="#A7A7A7" stroke-width="0"></polygon>
		</g>
	</g>
</g>
<g>
	<g>
		<g>
			<path d="M44,58.8L32.1,38.4L53.6,1.5l22,36.4L64.2,58.6L53.9,42.5L44,58.8z M36.2,38.4L44,51.9l9.8-16.1L64,51.7
				L71.5,38L53.7,8.4L36.2,38.4z" fill="#A7A7A7" stroke-width="0"></path>
		</g>
		<g>
			<polygon points="47.2,48.5 41.2,38.3 53.6,17 66.5,38 60.8,48.4 57.7,46.7 62.4,38.1 53.7,23.9 45.3,38.3 50.2,46.8 
							" fill="#A7A7A7" stroke-width="0"></polygon>
		</g>
	</g>
</g>
<g>
	<g>
		<path d="M67.2,70H41.4l12.9-22.4L67.2,70z M47.3,66.6h14.1l-7-12.2L47.3,66.6z" fill="#A7A7A7" stroke-width="0"></path>
	</g>
</g>
</svg>
                </g>
              </g>
              <g id="shape_q8UxNJ5AtT" ref="shape_q8UxNJ5AtT" key="shape_q8UxNJ5AtT" mask="">
                <g transform="translate(200.96079058351768,317.370387417379) rotate(0,199.03919089759796,71.90897597977244) scale(1,1)" style="opacity: 1;mix-blend-mode: undefined;" filter="">
                  <!--普通元素-->
                  <svg xmlns="http://www.w3.org/2000/svg" version="1.1" xmlns:xlink="http://www.w3.org/1999/xlink" width="398.078381795196" height="143.8179519595449" viewBox="0 0 656 237" data-ligature="true" data-parent="shape_q8UxNJ5AtT"><g data-role="text" data-width="457.04999999999995" data-height="39" transform="translate(99.47500000000002, 99)"><path d="M11.91-19.50L18.91-19.50L18.91-23.07L1.02-23.07L1.02-19.50L8.02-19.50L8.02 0L11.91 0Z" transform="translate(0 31) " fill="#000000" stroke="#000000" stroke-width="0.055" data-glyph-w="19.932000000000002" data-glyph-h="40.227000000000004" data-glyph-ascender="31.944000000000003" data-glyph-descender="-8.283000000000001" data-kerning="0"></path><path d="M6.37-9.50C6.37-13.00 8.81-14.49 11.12-14.49C13.66-14.49 15.15-13.00 15.15-9.64L15.15 0L18.84 0L18.84-10.76C18.84-15.51 16.00-17.82 12.21-17.82C9.80-17.82 7.43-16.53 6.37-14.36L6.37-24.45L2.67-24.45L2.67 0L6.37 0Z" transform="translate(19.767000000000003 31) " fill="#000000" stroke="#000000" stroke-width="0.055" data-glyph-w="21.318" data-glyph-h="40.227000000000004" data-glyph-ascender="31.944000000000003" data-glyph-descender="-8.283000000000001" data-kerning="-0.165"></path><path d="M19.01-7.16L19.01-9.70C19.01-14.95 14.98-17.82 10.36-17.82C5.97-17.82 1.55-14.65 1.55-8.75C1.55-3.10 5.71 0.26 10.43 0.26C12.90 0.26 15.54-0.33 17.82-2.67L15.71-4.98C14.45-3.47 12.51-2.90 10.69-2.90C8.05-2.90 5.45-4.49 5.25-7.16ZM5.25-10.07C5.25-13.04 7.99-14.65 10.56-14.65C13.00-14.65 15.31-13.20 15.31-10.07Z" transform="translate(41.08500000000001 31) " fill="#000000" stroke="#000000" stroke-width="0.055" data-glyph-w="20.394000000000002" data-glyph-h="40.227000000000004" data-glyph-ascender="31.944000000000003" data-glyph-descender="-8.283000000000001" data-kerning="0"></path><path d="M0,0Z" transform="translate(61.47900000000001 31) " fill="#000000" stroke="#000000" stroke-width="0.055" data-glyph-w="9.042" data-glyph-h="40.227000000000004" data-glyph-ascender="31.944000000000003" data-glyph-descender="-8.283000000000001" data-kerning="0"></path><path d="M6.30-17.23C6.30-19.24 8.09-20.03 10.20-20.03C12.41-20.03 15.02-19.17 16.40-17.92L18.48-20.86C16.30-22.67 13.20-23.63 10.33-23.63C6.07-23.63 2.24-21.52 2.24-16.86C2.24-12.57 5.02-11.05 9.93-9.90C14.19-8.88 15.11-8.02 15.11-6.34C15.11-4.55 13.53-3.37 11.02-3.37C8.18-3.37 5.97-4.49 3.76-6.40L1.32-3.47C4.09-0.99 7.43 0.26 10.92 0.26C15.77 0.26 19.17-2.34 19.17-6.73C19.17-10.59 16.63-12.38 11.75-13.56C7.36-14.62 6.30-15.41 6.30-17.23Z" transform="translate(70.52100000000002 31) " fill="#000000" stroke="#000000" stroke-width="0.055" data-glyph-w="20.790000000000003" data-glyph-h="40.227000000000004" data-glyph-ascender="31.944000000000003" data-glyph-descender="-8.283000000000001" data-kerning="0"></path><path d="M6.37-9.50C6.37-13.00 8.81-14.49 11.12-14.49C13.66-14.49 15.15-13.00 15.15-9.64L15.15 0L18.84 0L18.84-10.76C18.84-15.51 16.00-17.82 12.21-17.82C9.80-17.82 7.43-16.53 6.37-14.36L6.37-24.45L2.67-24.45L2.67 0L6.37 0Z" transform="translate(91.31100000000002 31) " fill="#000000" stroke="#000000" stroke-width="0.055" data-glyph-w="21.318" data-glyph-h="40.227000000000004" data-glyph-ascender="31.944000000000003" data-glyph-descender="-8.283000000000001" data-kerning="0"></path><path d="M6.37 0L6.37-17.56L2.67-17.56L2.67 0ZM2.21-22.70C2.21-21.42 3.27-20.36 4.55-20.36C5.84-20.36 6.90-21.42 6.90-22.70C6.90-23.99 5.84-25.05 4.55-25.05C3.27-25.05 2.21-23.99 2.21-22.70Z" transform="translate(112.62900000000002 31) " fill="#000000" stroke="#000000" stroke-width="0.055" data-glyph-w="9.042" data-glyph-h="40.227000000000004" data-glyph-ascender="31.944000000000003" data-glyph-descender="-8.283000000000001" data-kerning="0"></path><path d="M19.01-7.16L19.01-9.70C19.01-14.95 14.98-17.82 10.36-17.82C5.97-17.82 1.55-14.65 1.55-8.75C1.55-3.10 5.71 0.26 10.43 0.26C12.90 0.26 15.54-0.33 17.82-2.67L15.71-4.98C14.45-3.47 12.51-2.90 10.69-2.90C8.05-2.90 5.45-4.49 5.25-7.16ZM5.25-10.07C5.25-13.04 7.99-14.65 10.56-14.65C13.00-14.65 15.31-13.20 15.31-10.07Z" transform="translate(121.67100000000002 31) " fill="#000000" stroke="#000000" stroke-width="0.055" data-glyph-w="20.394000000000002" data-glyph-h="40.227000000000004" data-glyph-ascender="31.944000000000003" data-glyph-descender="-8.283000000000001" data-kerning="0"></path><path d="M6.37 0L6.37-24.49L2.67-24.49L2.67 0Z" transform="translate(142.06500000000003 31) " fill="#000000" stroke="#000000" stroke-width="0.055" data-glyph-w="9.042" data-glyph-h="40.227000000000004" data-glyph-ascender="31.944000000000003" data-glyph-descender="-8.283000000000001" data-kerning="0"></path><path d="M1.55-8.78C1.55-3.20 5.61 0.26 9.83 0.26C11.95 0.26 14.32-0.53 15.81-2.64L15.81 0L19.50 0L19.50-24.49L15.81-24.49L15.81-14.85C14.29-16.96 12.18-17.82 10.00-17.82C5.84-17.82 1.55-14.62 1.55-8.78ZM10.69-3.00C7.89-3.00 5.25-5.21 5.25-8.71C5.25-12.11 7.69-14.59 10.69-14.59C13.46-14.59 15.87-12.18 15.87-8.65C15.87-5.31 13.46-3.00 10.69-3.00Z" transform="translate(151.10700000000003 31) " fill="#000000" stroke="#000000" stroke-width="0.055" data-glyph-w="22.176000000000002" data-glyph-h="40.227000000000004" data-glyph-ascender="31.944000000000003" data-glyph-descender="-8.283000000000001" data-kerning="0"></path><path d="M0,0Z" transform="translate(173.28300000000002 31) " fill="#000000" stroke="#000000" stroke-width="0.055" data-glyph-w="9.042" data-glyph-h="40.227000000000004" data-glyph-ascender="31.944000000000003" data-glyph-descender="-8.283000000000001" data-kerning="0"></path><path d="M10.40-6.47L4.59-23.07L0.40-23.07L8.45 0L12.31 0L17.16-15.81L17.42-15.81L22.28 0L26.14 0L34.19-23.07L30.00-23.07L24.19-6.47L19.04-23.07L15.54-23.07Z" transform="translate(182.32500000000002 31) " fill="#000000" stroke="#000000" stroke-width="0.055" data-glyph-w="34.584" data-glyph-h="40.227000000000004" data-glyph-ascender="31.944000000000003" data-glyph-descender="-8.283000000000001" data-kerning="0"></path><path d="M10.76-3.04C7.56-3.04 5.21-5.38 5.21-8.78C5.21-12.18 7.56-14.52 10.76-14.52C13.96-14.52 16.30-12.18 16.30-8.78C16.30-5.38 13.96-3.04 10.76-3.04ZM10.76 0.26C16.10 0.26 20.00-3.76 20.00-8.78C20.00-13.79 16.10-17.82 10.76-17.82C5.41-17.82 1.52-13.79 1.52-8.78C1.52-3.76 5.41 0.26 10.76 0.26Z" transform="translate(215.65500000000003 31) " fill="#000000" stroke="#000000" stroke-width="0.055" data-glyph-w="21.516000000000002" data-glyph-h="40.227000000000004" data-glyph-ascender="31.944000000000003" data-glyph-descender="-8.283000000000001" data-kerning="-1.254"></path><path d="M6.37-9.50C6.37-13.00 8.81-14.49 11.12-14.49C13.66-14.49 14.82-13.00 14.82-9.64L14.82 0L18.51 0L18.51-9.77C18.61-13.07 20.99-14.49 23.27-14.49C25.81-14.49 27.29-13.00 27.29-9.64L27.29 0L30.99 0L30.99-10.76C30.99-15.51 28.15-17.82 24.35-17.82C21.85-17.82 19.70-16.83 17.85-14.39C16.86-16.70 14.85-17.82 12.21-17.82C9.80-17.82 7.43-16.53 6.37-14.36L6.37-17.56L2.67-17.56L2.67 0L6.37 0Z" transform="translate(237.17100000000002 31) " fill="#000000" stroke="#000000" stroke-width="0.055" data-glyph-w="33.462" data-glyph-h="40.227000000000004" data-glyph-ascender="31.944000000000003" data-glyph-descender="-8.283000000000001" data-kerning="0"></path><path d="M19.01-7.16L19.01-9.70C19.01-14.95 14.98-17.82 10.36-17.82C5.97-17.82 1.55-14.65 1.55-8.75C1.55-3.10 5.71 0.26 10.43 0.26C12.90 0.26 15.54-0.33 17.82-2.67L15.71-4.98C14.45-3.47 12.51-2.90 10.69-2.90C8.05-2.90 5.45-4.49 5.25-7.16ZM5.25-10.07C5.25-13.04 7.99-14.65 10.56-14.65C13.00-14.65 15.31-13.20 15.31-10.07Z" transform="translate(270.63300000000004 31) " fill="#000000" stroke="#000000" stroke-width="0.055" data-glyph-w="20.394000000000002" data-glyph-h="40.227000000000004" data-glyph-ascender="31.944000000000003" data-glyph-descender="-8.283000000000001" data-kerning="0"></path><path d="M6.37-9.50C6.37-13.00 8.81-14.49 11.12-14.49C13.66-14.49 15.15-13.00 15.15-9.64L15.15 0L18.84 0L18.84-10.76C18.84-15.51 16.00-17.82 12.21-17.82C9.80-17.82 7.56-16.53 6.37-14.36L6.37-17.56L2.67-17.56L2.67 0L6.37 0Z" transform="translate(291.02700000000004 31) " fill="#000000" stroke="#000000" stroke-width="0.055" data-glyph-w="21.318" data-glyph-h="40.227000000000004" data-glyph-ascender="31.944000000000003" data-glyph-descender="-8.283000000000001" data-kerning="0"></path><path d="M0,0Z" transform="translate(312.345 31) " fill="#000000" stroke="#000000" stroke-width="0.055" data-glyph-w="9.042" data-glyph-h="40.227000000000004" data-glyph-ascender="31.944000000000003" data-glyph-descender="-8.283000000000001" data-kerning="0"></path><path d="M23.99-11.55C23.99-18.78 19.47-23.07 11.12-23.07L3.20-23.07L3.20 0L10.86 0C20.13 0 23.99-4.88 23.99-11.55ZM20.06-11.55C20.06-6.34 16.96-3.66 11.42-3.66L7.10-3.66L7.10-19.47L10.99-19.47C17.32-19.47 20.06-16.47 20.06-11.55Z" transform="translate(321.387 31) " fill="#000000" stroke="#000000" stroke-width="0.055" data-glyph-w="25.806" data-glyph-h="40.227000000000004" data-glyph-ascender="31.944000000000003" data-glyph-descender="-8.283000000000001" data-kerning="0"></path><path d="M19.01-7.16L19.01-9.70C19.01-14.95 14.98-17.82 10.36-17.82C5.97-17.82 1.55-14.65 1.55-8.75C1.55-3.10 5.71 0.26 10.43 0.26C12.90 0.26 15.54-0.33 17.82-2.67L15.71-4.98C14.45-3.47 12.51-2.90 10.69-2.90C8.05-2.90 5.45-4.49 5.25-7.16ZM5.25-10.07C5.25-13.04 7.99-14.65 10.56-14.65C13.00-14.65 15.31-13.20 15.31-10.07Z" transform="translate(347.193 31) " fill="#000000" stroke="#000000" stroke-width="0.055" data-glyph-w="20.394000000000002" data-glyph-h="40.227000000000004" data-glyph-ascender="31.944000000000003" data-glyph-descender="-8.283000000000001" data-kerning="0"></path><path d="M15.18-5.41C15.18-8.68 12.31-9.77 9.77-10.56C7.72-11.22 5.71-11.25 5.71-12.80C5.71-14.12 7.00-14.72 8.68-14.72C10.16-14.72 11.95-14.22 13.33-13.30L14.72-16.04C12.87-17.26 10.82-17.82 8.65-17.82C5.18-17.82 2.15-15.81 2.15-12.44C2.15-9.34 5.45-8.09 7.62-7.49C9.67-6.86 11.52-6.40 11.52-4.98C11.52-3.83 10.53-2.94 8.81-2.94C7.03-2.94 4.75-3.83 2.87-5.25L1.09-2.38C3.27-0.66 6.24 0.26 8.71 0.26C12.34 0.26 15.18-1.75 15.18-5.41Z" transform="translate(367.587 31) " fill="#000000" stroke="#000000" stroke-width="0.055" data-glyph-w="16.698" data-glyph-h="40.227000000000004" data-glyph-ascender="31.944000000000003" data-glyph-descender="-8.283000000000001" data-kerning="0"></path><path d="M19.01-7.16L19.01-9.70C19.01-14.95 14.98-17.82 10.36-17.82C5.97-17.82 1.55-14.65 1.55-8.75C1.55-3.10 5.71 0.26 10.43 0.26C12.90 0.26 15.54-0.33 17.82-2.67L15.71-4.98C14.45-3.47 12.51-2.90 10.69-2.90C8.05-2.90 5.45-4.49 5.25-7.16ZM5.25-10.07C5.25-13.04 7.99-14.65 10.56-14.65C13.00-14.65 15.31-13.20 15.31-10.07Z" transform="translate(384.28499999999997 31) " fill="#000000" stroke="#000000" stroke-width="0.055" data-glyph-w="20.394000000000002" data-glyph-h="40.227000000000004" data-glyph-ascender="31.944000000000003" data-glyph-descender="-8.283000000000001" data-kerning="0"></path><path d="M12.04-17.82C9.70-17.75 7.52-16.17 6.37-14.03L6.37-17.56L2.67-17.56L2.67 0L6.37 0L6.37-7.52C6.37-11.29 8.09-14.19 12.08-14.09Z" transform="translate(404.679 31) " fill="#000000" stroke="#000000" stroke-width="0.055" data-glyph-w="13.101" data-glyph-h="40.227000000000004" data-glyph-ascender="31.944000000000003" data-glyph-descender="-8.283000000000001" data-kerning="0"></path><path d="M7.33 0L11.55 0L18.61-17.56L14.78-17.56L9.44-4.29L4.09-17.56L0.26-17.56Z" transform="translate(417.78 31) " fill="#000000" stroke="#000000" stroke-width="0.055" data-glyph-w="18.876" data-glyph-h="40.227000000000004" data-glyph-ascender="31.944000000000003" data-glyph-descender="-8.283000000000001" data-kerning="0"></path><path d="M19.01-7.16L19.01-9.70C19.01-14.95 14.98-17.82 10.36-17.82C5.97-17.82 1.55-14.65 1.55-8.75C1.55-3.10 5.71 0.26 10.43 0.26C12.90 0.26 15.54-0.33 17.82-2.67L15.71-4.98C14.45-3.47 12.51-2.90 10.69-2.90C8.05-2.90 5.45-4.49 5.25-7.16ZM5.25-10.07C5.25-13.04 7.99-14.65 10.56-14.65C13.00-14.65 15.31-13.20 15.31-10.07Z" transform="translate(436.65599999999995 31) " fill="#000000" stroke="#000000" stroke-width="0.055" data-glyph-w="20.394000000000002" data-glyph-h="40.227000000000004" data-glyph-ascender="31.944000000000003" data-glyph-descender="-8.283000000000001" data-kerning="0"></path></g></svg>
                </g>
              </g>
    </svg>