<svg xmlns="http://www.w3.org/2000/svg" xmlns:xlink="http://www.w3.org/1999/xlink" class="svg-canvas" viewBox="293.41515428859 148.6728358403 213.17832122291 213.17832122291" width="1600" height="1600" preserveAspectRatio="none" version="1.1" style="background-color:#ffffff"><!--滤镜--><defs></defs><!-- 背景 --><g id="background"><rect x="0" y="0" fill="#ffffff" width="800" height="600"></rect></g><!--元素--><g id="shape_2NR4492Dii" ref="shape_2NR4492Dii" key="shape_2NR4492Dii" mask=""><g transform="translate(335.3919024720272,198.88751397326578) rotate(0,64.61241242802024,56.37448247848386) scale(1,1)" style="opacity: 1;mix-blend-mode: undefined;" filter=""><!--普通元素--><svg xmlns="http://www.w3.org/2000/svg" xmlns:xlink="http://www.w3.org/1999/xlink" version="1.1" id="图层_1" x="0px" y="0px" width="129.22482485604047" height="112.74896495696773" viewBox="1.9000000953674316 1.5 105.0999984741211 91.69999694824219" style="enable-background:new 0 0 109 95;" xml:space="preserve" class="style-removed" preserveAspectRatio="none" data-parent="shape_2NR4492Dii">

<g>
	<g>
		<g>
			<path d="M44.6,93.2L1.9,93l20.5-37.2l23.6-0.5l-8.8,17l19.1,0.4L44.6,93.2z M7.8,89.5l34.7,0.2l7.8-13.6l-18.9-0.4     l8.7-16.7l-15.7,0.3L7.8,89.5z" fill="#A7A7A7" stroke-width="0"></path>
		</g>
		<g>
			<polygon points="40,85.4 15.3,85.3 27,63.6 38.9,63.4 39,66.9 29.2,67.1 21.2,81.8 37.9,81.8 42.8,73.3 45.9,75.1         " fill="#A7A7A7" stroke-width="0"></polygon>
		</g>
	</g>
</g>
<g>
	<g>
		<g>
			<path d="M64.5,92.9L52.3,72.6l19.1-0.9L62.2,55l23.6-0.1L107,92L64.5,92.9z M58.4,75.9l8.1,13.4l34.5-0.7L83.8,58.5     l-15.6,0.1l9.1,16.5L58.4,75.9z" fill="#A7A7A7" stroke-width="0"></path>
		</g>
		<g>
			<polygon points="69,85 62.8,74.8 65.8,73 70.9,81.4 87.6,80.9 79.3,66.4 69.5,66.4 69.5,62.9 81.4,62.9 93.6,84.3         " fill="#A7A7A7" stroke-width="0"></polygon>
		</g>
	</g>
</g>
<g>
	<g>
		<g>
			<path d="M44,58.8L32.1,38.4L53.6,1.5l22,36.4L64.2,58.6L53.9,42.5L44,58.8z M36.2,38.4L44,51.9l9.8-16.1L64,51.7     L71.5,38L53.7,8.4L36.2,38.4z" fill="#A7A7A7" stroke-width="0"></path>
		</g>
		<g>
			<polygon points="47.2,48.5 41.2,38.3 53.6,17 66.5,38 60.8,48.4 57.7,46.7 62.4,38.1 53.7,23.9 45.3,38.3 50.2,46.8         " fill="#A7A7A7" stroke-width="0"></polygon>
		</g>
	</g>
</g>
<g>
	<g>
		<path d="M67.2,70H41.4l12.9-22.4L67.2,70z M47.3,66.6h14.1l-7-12.2L47.3,66.6z" fill="#A7A7A7" stroke-width="0"></path>
	</g>
</g>
</svg></g></g></svg>