<svg xmlns="http://www.w3.org/2000/svg" xmlns:xlink="http://www.w3.org/1999/xlink" version="1.1" preserveAspectRatio="none" viewBox="0 0 800 600" width="1600" height="1200" style="background:#000000;">
      <path transform="translate(0, 0)" fill="#ffffff" fill-rule="evenodd" d="M534.5890838831499,385.7661206664594L536.262029521575,386.71324456025L536.9136097997008,387.41255318856287L537.4093114431876,388.2577135867906L537.7246717465993,389.24524124166055L537.8352280045,390.3716516399L537.8352280045,391.9129917158L529.4852912156,391.9129917158L529.827010558211,393.000444307425L530.5806135923625,393.813118138L531.6118398882079,394.321999301075L532.7864290159,394.4980738902L534.4369979159999,394.2105896930125L535.1894631498906,393.8196604894922L535.8326995595,393.2358741431L537.1131041107,394.6376440546L536.0394947554313,395.5145087827641L534.9141154886751,396.05913583711254L533.7671180171312,396.3375176323047L532.6286540475,396.415646583L530.5783379918532,396.04349108363124L529.664968838877,395.58971026820626L528.86025961005,394.967606127875L528.1898108110605,394.1847877018281L527.6792229475968,393.2488640292562L527.3540965253471,392.16744414935L527.24003205,390.9481371013L527.3604847996837,389.68370916199984L527.700746335714,388.5777199079047L528.2291715885591,387.63329828971035L528.9141154886875,386.85357325811253L529.7239329665673,386.24167376380683L530.6269789526672,385.8007287574891L532.5861761714,385.4442180116ZM502.80895746085,385.7661206664594L504.481903099275,386.71324456025L505.1334833774008,387.41255318856287L505.62918502088746,388.2577135867906L505.94454532429916,389.24524124166055L506.0551015822,390.3716516399L506.0551015822,391.9129917158L497.7051647934,391.9129917158L498.04688413599536,393.000444307425L498.80048717011255,393.813118138L499.8317134659235,394.321999301075L501.0063025936,394.4980738902L502.6568714937375,394.2105896930125L503.4093367276047,393.8196604894922L504.0525731372,393.2358741431L505.3329776884,394.6376440546L504.25936833318747,395.5145087827641L503.13398906645,396.05913583711254L501.98699159488746,396.3375176323047L500.8485276252,396.415646583L498.7982115695953,396.04349108363124L497.8848424166209,395.58971026820626L497.0801331877875,394.967606127875L496.4096843887869,394.1847877018281L495.89909652531094,393.2488640292562L495.57397010305135,392.16744414935L495.4599056277,390.9481371013L495.5803583773878,389.68370916199984L495.9206199134281,388.5777199079047L496.4490451662855,387.63329828971035L497.133989066425,386.85357325811253L497.9438065443113,386.24167376380683L498.84685253040936,385.8007287574891L500.8060497491,385.4442180116ZM491.5501205455875,385.7066706032375L493.319020672,386.5243697183L492.4755314179,388.1870751544L491.087415109425,387.54687287882507L489.6537867908,387.3253810963L488.9420927326672,387.3947869117219L488.3703481056125,387.60755555900005L487.9897539210266,387.9705138396531L487.8515111903,388.4904885552L488.0615301536453,389.0433646614156L488.6168714937375,389.372663017925L490.3152280045,389.8497805906L491.47843912963435,390.26128501538597L492.534697031025,390.8480106791125L493.3019536682031,391.71691080553285L493.5981610007,392.9749386184L493.2944631498797,394.44952774610624L492.46111928136247,395.5281623858L491.2147539210641,396.19036213294373L489.6719915949,396.415646583L488.5031862851359,396.3121067599906L487.29398906641245,396.006038491975L486.1177880550328,395.5042685804719L485.0479713673,394.813623827L486.128123074,393.0720309067L487.953154679575,394.09605113423754L488.8742039842375,394.3759499964484L489.732674275,394.4738008182L490.4299561966125,394.3785100470172L490.94632787802504,394.1165315387875L491.26699791595,393.72370600148906L491.3771749071,393.2358741431L491.18232661380165,392.68811813801716L490.66036074781255,392.2945340672125L489.0105503812,391.7127388713L487.9363721258234,391.35433179160157L486.8570737693125,390.77974266388753L486.0246780676703,389.92070347297965L485.6912077769,388.7089462037L486.01140373138907,387.3360953819703L486.8737615063625,386.30970473723755L488.1309359690797,385.66675277771094L489.6355819868,385.4442180116ZM480.3005377390078,385.7661206664594L481.97348337746246,386.71324456025L482.6250636555955,387.41255318856287L483.1207652990859,388.2577135867906L483.43612560249903,389.24524124166055L483.5466818604,390.3716516399L483.5466818604,391.9129917158L475.1967450715,391.9129917158L475.5384644140953,393.000444307425L476.2920674482125,393.813118138L477.32329374402343,394.321999301075L478.4978828717,394.4980738902L480.14845177185,394.2105896930125L480.90091700574686,393.8196604894922L481.5441534154,393.2358741431L482.8245579666,394.6376440546L481.7509486113297,395.5145087827641L480.6255693445625,396.05913583711254L479.47857187298905,396.3375176323047L478.3401079033,396.415646583L476.28979184771094,396.04349108363124L475.3764226947526,395.58971026820626L474.5717134659375,394.967606127875L473.9012646669553,394.1847877018281L473.3906768034953,393.2488640292562L473.0655503812471,392.16744414935L472.9514859059,390.9481371013L473.07193865558355,389.68370916199984L473.41220019161244,388.5777199079047L473.9406254444539,387.63329828971035L474.62556934457496,386.85357325811253L475.435386822443,386.24167376380683L476.338432808525,385.8007287574891L478.2976300272,385.4442180116ZM433.84187781485,385.7661206664594L435.51482345327497,386.71324456025L436.1664037314008,387.41255318856287L436.66210537488746,388.2577135867906L436.97746567829915,389.24524124166055L437.0880219362,390.3716516399L437.0880219362,391.9129917158L428.7380851473,391.9129917158L429.0798044899109,393.000444307425L429.8334075240625,393.813118138L430.8646338199078,394.321999301075L432.0392229476,394.4980738902L433.6897918477375,394.2105896930125L434.4422570816047,393.8196604894922L435.0854934912,393.2358741431L436.3658980424,394.6376440546L435.2922886871734,395.5145087827641L434.1669094204125,396.05913583711254L433.01991194884533,396.3375176323047L431.8814479792,396.415646583L429.83113192355313,396.04349108363124L428.9177627705769,395.58971026820626L428.11305354175,394.967606127875L427.4426047427605,394.1847877018281L426.93201687929684,393.2488640292562L426.60689045704726,392.16744414935L426.4928259817,390.9481371013L426.6132787313838,389.68370916199984L426.95354026741404,388.5777199079047L427.48196552025917,387.63329828971035L428.16690942038747,386.85357325811253L428.9767268982673,386.24167376380683L429.8797728843672,385.8007287574891L431.8389701031,385.4442180116ZM399.89087117768645,385.55523650085354L400.96275012837964,385.87383242373437L401.9177201030924,386.37831646292307L402.73828742293756,387.04699930109996L403.406958409028,387.8581916209457L403.9062393824766,388.79020410514056L404.21863666439634,389.8213474363652L404.3266565759,390.9299322973L404.21863666439634,392.0402594148676L403.9062393824766,393.0722205400218L403.406958409028,394.00433969299013L402.73828742293756,394.81514089399997L401.9177201030924,395.48314816327854L400.96275012837964,395.9868855210531L399.89087117768645,396.3048769875512L398.7195769299,396.415646583L397.54654042548066,396.3048769875512L396.4738436808578,395.9868855210531L395.5187670373716,395.48314816327854L394.6985908363625,394.81514089399997L394.03059541917054,394.00433969299013L393.53206112713593,393.0722205400218L393.220268301599,392.0402594148676L393.1124972839,390.9299322973L393.220268301599,389.8213474363652L393.53206112713593,388.79020410514056L394.03059541917054,387.8581916209457L394.6985908363625,387.04699930109996L395.5187670373716,386.37831646292307L396.4738436808578,385.87383242373437L397.54654042548066,385.55523650085354L398.7195769299,385.4442180116ZM364.8537867908,396.2578716146L362.6145958932,396.2578716146L362.6145958932,394.6558488586L361.84705480600314,395.470987923075L360.94354658857503,396.01589942749996L359.9683569552094,396.320735078575L358.9857716202,396.415646583L357.12034810565626,396.0346731316797L355.5132052485,394.9425745223375L354.8758237693524,394.1536759761982L354.3862140980438,393.2155833719016L354.0721101157384,392.1378257865635L353.9612457036,390.9299322973L354.0780361587198,389.6767401354686L354.4074530360891,388.57771990790474L354.91806460372334,387.63685391549166L355.57843912963756,386.85812445911256L357.22275012836724,385.80300435798904L359.0889321764,385.4442180116L360.06819892734376,385.54576668416564L361.001953668175,385.86520410515004L361.8606135923187,386.4247173794844L362.6145958932,387.2464936121L362.6145958932,381.3966832455L364.8537867908,381.3966832455ZM343.44774380725005,385.7661206664594L345.120689445675,386.71324456025L345.77226972380083,387.41255318856287L346.2679713672875,388.2577135867906L346.5833316706992,389.24524124166055L346.6938879286,390.3716516399L346.6938879286,391.9129917158L338.3439511398,391.9129917158L338.6856704823954,393.000444307425L339.4392735165125,393.813118138L340.47049981232345,394.321999301075L341.64508894,394.4980738902L343.29565784013755,394.2105896930125L344.0481230740047,393.8196604894922L344.6913594836,393.2358741431L345.9717640348,394.6376440546L344.8981546795875,395.5145087827641L343.77277541285,396.05913583711254L342.6257779412875,396.3375176323047L341.4873139716,396.415646583L339.43699791599533,396.04349108363124L338.5236287630209,395.58971026820626L337.7189195341875,394.967606127875L337.04847073518687,394.1847877018281L336.5378828717109,393.2488640292562L336.2127564494514,392.16744414935L336.0986919741,390.9481371013L336.21914472378785,389.68370916199984L336.5594062598281,388.5777199079047L337.0878315126855,387.63329828971035L337.772775412825,386.85357325811253L338.58259289071134,386.24167376380683L339.4856388768094,385.8007287574891L341.4448360955,385.4442180116ZM311.7089005708594,382.0267401355L313.017276044925,382.34712572335L314.24714330155314,382.87345315697496L315.3330788262,383.599464535L314.0708790791,385.3835353314L313.3183190285219,384.86346579916096L312.37859083635,384.4588829925875L310.3085529097,384.1031307802L309.3985971574906,384.19709411774846L308.64508894005,384.49529260068755L308.13165657595937,385.0221889344578L307.9419283838,385.8022458245L308.0840585987156,386.52569715189844L308.59654279592496,387.0887186436625L309.6085213041219,387.56526731622034L311.249134452,388.029300186L313.2019789526375,388.64959095719377L314.610954932425,389.4917527777L315.464684388825,390.6388450659563L315.7517893193,392.1739272404L315.6573874545701,393.1210392821307L315.38342648743594,393.9605580874453L314.35229500828746,395.2937755337125L312.76933040652034,396.12749866897343L310.7454682068,396.415646583L309.17814835849845,396.2736111847703L307.66885632308754,395.8482635235875L306.2414859058829,395.1407413997109L304.9199309122,394.1521826134L306.4005883079,392.3741800849L307.4123771827609,393.15044430740465L308.4600067655625,393.72816238578747L309.57931776428285,394.08856061587653L310.8061508869,394.2128652935L311.83652383253434,394.08400941486406L312.61828742292494,393.71905998376246L313.1144631498531,393.1504443074047L313.2880725051,392.410589693L313.1604492434062,391.7299955084375L312.6857969046,391.180248352925L311.72644165809373,390.70559601409997L310.1447096733,390.2502862796L308.15858451524525,389.66204354889067L306.6941407731375,388.8530675691L305.788356955186,387.68682230990936L305.55651830158416,386.9270561910645L305.4782115696,386.026771741L305.5831262345806,385.0383551797082L305.8817513926078,384.1918791999532L306.34990878830916,383.48421485104024L306.9634201663125,382.91223318227503L308.5297918477359,382.16280208240937L310.3874403939,381.9185542948ZM294.54599918024996,385.7661206664594L296.218944818675,386.71324456025L296.8705250968008,387.41255318856287L297.3662267402875,388.2577135867906L297.6815870436992,389.24524124166055L297.7921433016,390.3716516399L297.7921433016,391.9129917158L289.4422065127,391.9129917158L289.78392585531094,393.000444307425L290.5375288894625,393.813118138L291.56875518530785,394.321999301075L292.743344313,394.4980738902L294.3939132131,394.2105896930125L295.14637844699064,393.8196604894922L295.7896148566,393.2358741431L297.0700194078,394.6376440546L295.99641005253125,395.5145087827641L294.871030785775,396.05913583711254L293.72403331423124,396.3375176323047L292.5855693446,396.415646583L290.53525328895313,396.04349108363124L289.621884135977,395.58971026820626L288.81717490715,394.967606127875L288.1467261081606,394.1847877018281L287.6361382446969,393.2488640292562L287.3110118224472,392.16744414935L287.1969473471,390.9481371013L287.3174000967838,389.68370916199984L287.6576616328141,388.5777199079047L288.1860868856592,387.63329828971035L288.8710307857875,386.85357325811253L289.6808482636674,386.24167376380683L290.5838942497672,385.8007287574891L292.5430914685,385.4442180116ZM520.5734328085,393.6545846361L523.8138879286,385.60199298L526.1380345784,385.60199298L521.8538373597,396.2578716146L519.2930282573,396.2578716146L515.0027627706,385.60199298L517.3269094204,385.60199298ZM514.2254176379,387.7076819812L513.3813713357358,387.7677365008125L512.6625541739047,387.98331409248124L511.5849625177625,388.82045062852495L510.96135316251406,390.09791586240624L510.7604366012,391.6945340672L510.7604366012,396.2578716146L508.5151774356,396.2578716146L508.5151774356,385.60199298L510.7604366012,385.60199298L510.7604366012,387.7440915893L511.39276909170627,386.8428589723859L512.209994123325,386.1231054957875L513.1626173850312,385.63887667152034L514.2011445658,385.4442180116ZM464.8894102105213,382.3788063491117L466.4569789526328,382.73369335922496L467.79684541914355,383.31343814430704L468.9041028464625,384.108440514725L469.7738444709986,385.10910028084606L470.40116352916095,386.3058172530375L470.78115325735837,387.6889912416664L470.908906892,389.2490220571L470.7972720942738,390.7122687385095L470.45501940779684,392.0517085299078L469.8711263926215,393.24536766391145L469.0345706088,394.2712723731375L467.9343296163848,395.10744889020253L466.5593809754281,395.73192344772343L464.89870224598235,396.1227222783169L462.9412709881,396.2578716146L458.2929776884,396.2578716146L458.2929776884,382.2583773036L463.0990459564,382.2583773036ZM446.9361192813375,385.7082824869469L448.211308914725,386.50540638075L449.055272252275,387.84298539465317L449.28194339639606,388.7167567284059L449.3604871701,389.7284152303L449.3604871701,396.2578716146L447.1212962725,396.2578716146L447.1212962725,390.408061248L446.9559359690812,389.0880233213172L446.476542795875,388.17190448438754L445.70814835845624,387.63808653241404L444.6757842624,387.4649512606L443.6340333142359,387.6394139660422L442.70890689198757,388.18252395341256L442.04661232814533,389.1238640292766L441.7933569552,390.4930170002L441.7933569552,396.2578716146L439.5480977896,396.2578716146L439.5480977896,385.60199298L441.7933569552,385.60199298L441.7933569552,387.5438387448L442.44607503357815,386.6602420317828L443.287667953925,386.0002230684625L444.2680725051094,385.58710676001095L445.337225476,385.4442180116ZM421.6252406467172,385.7082824869469L422.9022317971375,386.50540638075L423.74685885148904,387.84298539465317L423.9736129602103,388.7167567284059L424.052168586,389.7284152303L424.052168586,396.2578716146L421.8069094204,396.2578716146L421.8069094204,390.408061248L421.6424972838703,389.0880233213172L421.1651900778125,388.17190448438754L420.39888160752344,387.63808653241404L419.3674656783,387.4649512606L418.3409802168797,387.6308804641469L417.4271369804625,388.146114345325L416.761334199164,389.0368223099406L416.4789701031,390.3291737638L416.4789701031,396.2578716146L414.2397792055,396.2578716146L414.2397792055,390.408061248L414.1057084090344,389.0880233213172L413.695152151125,388.17190448438754L412.9955946290031,387.63808653241404L411.9945200399,387.4649512606L410.9527690917359,387.6394139660422L410.0276426694875,388.18252395341256L409.3653481056453,389.1238640292766L409.1120927327,390.4930170002L409.1120927327,396.2578716146L406.8668335671,396.2578716146L406.8668335671,385.60199298L409.1120927327,385.60199298L409.1120927327,387.5438387448L409.73153015368126,386.6602420317828L410.57682092485,386.0002230684625L411.5757147301438,385.58710676001095L412.6559612535,385.4442180116L413.7820990537578,385.5723153567328L414.7426869172375,385.9592622593875L415.51553773899843,386.60904102044844L416.0784644141,387.5256339408L416.95504469223124,386.5757603630516L417.902737486175,385.92967945281254L418.92438729655623,385.56122180426723L420.022838624,385.4442180116ZM378.2755819868,392.3317022088L381.3946717466,382.2583773036L383.5185655519,382.2583773036L386.6437235797,392.3317022088L390.1693872965,382.2583773036L392.7119915949,382.2583773036L387.8270358427,396.2578716146L385.4846843888,396.2578716146L382.5355061334,386.6639398826L382.377731165,386.6639398826L379.4346211777,396.2578716146L377.0922697238,396.2578716146L372.2073139716,382.2583773036L374.74991827,382.2583773036ZM351.3992229476,396.2578716146L349.153963782,396.2578716146L349.153963782,381.3966832455L351.3992229476,381.3966832455ZM333.5366692181,396.2578716146L331.2914100525,396.2578716146L331.2914100525,385.60199298L333.5366692181,385.60199298ZM320.6003354634,387.5438387448L321.2197728843828,386.6602420317828L322.0650636555625,386.0002230684625L323.06395746088594,385.58710676001095L324.1442039843,385.4442180116L325.74309778957974,385.7082824869469L327.01828742293753,386.50540638075L327.86225076047657,387.84298539465317L328.0889219045963,388.7167567284059L328.1674656783,389.7284152303L328.1674656783,396.2578716146L325.9282747807,396.2578716146L325.9282747807,390.408061248L325.76291447729534,389.0880233213172L325.2835213041125,388.17190448438754L324.51512686669844,387.63808653241404L323.4827627706,387.4649512606L322.4410118224359,387.6394139660422L321.51588540018747,388.18252395341256L320.8535908363453,389.1238640292766L320.6003354634,390.4930170002L320.6003354634,396.2578716146L318.3550762978,396.2578716146L318.3550762978,381.4209563175L320.6003354634,381.4209563175ZM277.1855187757,387.5438387448L277.8049561966813,386.6602420317828L278.65024696785,386.0002230684625L279.6491407731438,385.58710676001095L280.7293872965,385.4442180116L282.32828110183755,385.7082824869469L283.603470735225,386.50540638075L284.44743407277497,387.84298539465317L284.67410521689607,388.7167567284059L284.7526489906,389.7284152303L284.7526489906,396.2578716146L282.513458093,396.2578716146L282.513458093,390.408061248L282.3480977895813,389.0880233213172L281.868704616375,388.17190448438754L281.10031017895625,387.63808653241404L280.0679460829,387.4649512606L279.02619513473593,387.6394139660422L278.1010687124875,388.18252395341256L277.43877414864534,389.1238640292766L277.1855187757,390.4930170002L277.1855187757,396.2578716146L274.94025961,396.2578716146L274.94025961,381.4209563175L277.1855187757,381.4209563175ZM272.7999814811,384.424748985L268.5521938705,384.424748985L268.5521938705,396.2578716146L266.1916376126,396.2578716146L266.1916376126,384.424748985L261.943850002,384.424748985L261.943850002,382.2583773036L272.7999814811,382.2583773036ZM358.2238247175125,387.6716516399093L357.174393617625,388.41463520499997L356.4663025936,389.54447085606563L356.2065048692,390.9724101734L356.4833695973922,392.40983115949535L357.2199056277375,393.5013608687375L358.27502572888903,394.1946604894859L359.5076426695,394.4373912101L360.7079271195531,394.18669588772343L361.709665425475,393.4831560647125L362.39623306135934,392.3995909572453L362.6510055013,391.0088197815L362.39623306135934,389.5419108055031L361.709665425475,388.403257202475L360.7079271195531,387.6662470887094L359.5076426695,387.4042685805ZM397.3741281308953,387.70085517972814L396.30744039386246,388.414635205L395.6048487377484,389.51526731624693L395.3516881815,390.9299322973L395.6048487377484,392.3445972783531L396.30744039386246,393.4452293896L397.3741281308953,394.1590094148719L398.7195769299,394.413118138L400.06407756202964,394.1590094148719L401.1286793319375,393.4452293896L401.8291850209265,392.3445972783531L402.0813974103,390.9299322973L401.8291850209265,389.51526731624693L401.1286793319375,388.414635205L400.06407756202964,387.70085517972814L398.7195769299,387.4467464566ZM460.6596022143,384.4429537891L460.6596022143,394.0368855211L463.2810939969,394.0368855211L464.4715886239527,393.96083068544743L465.51857819411566,393.7333773036484L466.4173692813457,393.3555920634408L467.16326845960003,392.8285416525625L467.7515823028356,392.1532927587514L468.1776173850094,391.3309120697453L468.4366802800786,390.3624662732822L468.524077562,389.2490220571L468.4451308173752,388.18532104571227L468.20426087427035,387.2385290103109L467.7954231688397,386.4163261026009L467.21257313723754,385.7263924742875L466.4496662156182,385.17640827707555L465.50065784013594,384.7740536626703L464.35950344694515,384.52700878277676L463.0201584722,384.4429537891ZM531.5461319236015,387.5486743959078L530.5115870436874,388.0816389976625L529.7694568287546,388.952530274511L529.4852912156,390.1471257233L535.5899688389,390.1471257233L535.3478070184203,388.9115694654266L534.7040017086874,388.04522938958746L533.7825731372609,387.53502079287966L532.7075415317,387.3678589724ZM499.7660055013172,387.5486743959078L498.73146062143746,388.0816389976625L497.98933040653907,388.952530274511L497.7051647934,390.1471257233L503.8098424166,390.1471257233L503.56768059612034,388.9115694654266L502.9238752863875,388.04522938958746L502.0024467149609,387.53502079287966L500.9274151094,387.3678589724ZM477.2575857794172,387.5486743959078L476.2230408995375,388.0816389976625L475.48091068463907,388.952530274511L475.1967450715,390.1471257233L481.3014226948,390.1471257233L481.0592608743047,388.9115694654266L480.4154555645375,388.04522938958746L479.4940269930766,387.53502079287966L478.4189953875,387.3678589724ZM430.7989258553015,387.5486743959078L429.7643809753875,388.0816389976625L429.02225076045465,388.952530274511L428.7380851473,390.1471257233L434.8427627706,390.1471257233L434.60060095012034,388.9115694654266L433.9567956403875,388.04522938958746L433.0353670689609,387.53502079287966L431.9603354634,387.3678589724ZM340.4047918477172,387.5486743959078L339.3702469678375,388.0816389976625L338.6281167529391,388.952530274511L338.3439511398,390.1471257233L344.448628763,390.1471257233L344.20646694252025,388.9115694654266L343.56266163278747,388.04522938958746L342.64123306136094,387.53502079287966L341.5662014558,387.3678589724ZM291.50304722070155,387.5486743959078L290.4685023407875,388.0816389976625L289.7263721258547,388.952530274511L289.4422065127,390.1471257233L295.546884136,390.1471257233L295.3047223155203,388.9115694654266L294.6609170057875,388.04522938958746L293.73948843436096,387.53502079287966L292.6644568288,387.3678589724ZM332.98531017893595,381.1695972783188L333.4388183963625,381.47632926315003L333.74555038118274,381.92983748060624L333.8582874229,382.4829032202L333.74555038118274,383.03246074229844L333.4388183963625,383.4841674426625L332.98531017893595,383.7902357106703L332.4322444394,383.9028779357L331.88268691724375,383.7902357106703L331.43098021685,383.4841674426625L331.12491194883125,383.03246074229844L331.0122697238,382.4829032202L331.12491194883125,381.92983748060624L331.43098021685,381.47632926315003L331.88268691724375,381.1695972783188L332.4322444394,381.0568602366ZM206.755877175875,337.762636075175L207.7996192745,338.4726234329L208.509606632225,339.51636553152497L208.7462690848,340.7542922066L208.509606632225,341.99221888172497L207.7996192745,343.0359609803L206.755877175875,343.7459483381L205.5179505008,343.9826107907L174.5637153554,343.9826107907L169.9761047359,348.5459483381L169.9761047359,350.4392479588L205.5179505008,350.4392479588L206.755877175875,350.6743933444001L207.7996192745,351.3798295012L208.509606632225,352.423571599825L208.7462690848,353.6614982749L208.7462690848,360.1424085151L208.5065724982,361.377301056175L207.7874827384,362.4119407528L201.3369138383,368.8625096529L200.296205873725,369.5815994127L199.0431085286,369.8212959993L166.7538544199,369.8212959993L165.515927744775,369.58463354670005L164.4721856462,368.8746461889L163.76219828840001,367.830904090325L163.5255358358,366.5929774152L163.76219828840001,365.35505074012497L164.4721856462,364.3113086415L165.515927744775,363.6013212836999L166.7538544199,363.3646588311L197.70808956529999,363.3646588311L202.2957001847,358.7831164797L202.2957001847,356.889816859L166.7538544199,356.889816859L165.515927744775,356.65315440640006L164.4721856462,355.9431670486L163.76219828840001,354.899424949975L163.5255358358,353.6614982749L163.5255358358,347.2109293748L163.7637153554,345.96996856565L164.4782539142,344.917124065L170.9348910823,338.4665551649L171.969530778925,337.761119008175L173.20442332,337.5259736226L205.5179505008,337.5259736226ZM257.197753652825,337.741397137075L258.2323933494,338.4422820928L258.93782950615,339.48299005745L259.1851114278,340.7360874026L259.1851114278,366.5747726112L258.9499660422,367.814216353275L258.2445298854,368.8625096529L257.200787786825,369.5815994127L255.9628611117,369.8212959993L254.724934436625,369.5815994127L253.681192338,368.8625096529L252.97120498027502,367.814216353275L252.7345425277,366.5747726112L252.7345425277,356.889816859L220.4392201509,356.889816859L220.4392201509,366.5747726112L220.20255769832502,367.814216353275L219.4925703406,368.8625096529L218.453379442975,369.5815994127L217.2169698349,369.8212959993L215.97904315977502,369.5815994127L214.9353010612,368.8625096529L214.2253137034,367.814216353275L213.9886512508,366.5747726112L213.9886512508,340.7360874026L214.2253137034,339.498160727475L214.9353010612,338.4544186289L215.97904315977502,337.7444312711L217.2169698349,337.5077688185L218.453379442975,337.7444312711L219.4925703406,338.4544186289L220.20255769832502,339.498160727475L220.4392201509,340.7360874026L220.4392201509,350.4392479588L252.7345425277,350.4392479588L252.7345425277,340.7360874026L252.97120498027502,339.498160727475L253.681192338,338.4544186289L254.724934436625,337.7444312711L255.9628611117,337.5077688185ZM307.682108005875,337.7444312711L308.7258501045,338.4544186289L309.435837462225,339.498160727475L309.6724999148,340.7360874026L309.435837462225,341.974014077675L308.7258501045,343.0177561763L307.682108005875,343.723192333025L306.4441813308,343.9583377186L270.9023355659,343.9583377186L270.9023355659,350.4392479588L299.9936124306,350.4392479588L301.231539105725,350.6743933444001L302.2752812043,351.3798295012L302.98526856210003,352.423571599825L303.2219310147,353.6614982749L302.98526856210003,354.899424949975L302.2752812043,355.9431670486L301.231539105725,356.65315440640006L299.9936124306,356.889816859L270.9023355659,356.889816859L270.9023355659,363.3464540271L306.4441813308,363.3464540271L307.682108005875,363.5831164796999L308.7258501045,364.2931038375L309.435837462225,365.333811802075L309.6724999148,366.5747726112L309.435837462225,367.814216353275L308.7258501045,368.8625096529L307.682108005875,369.5815994127L306.4441813308,369.8212959993L267.6800852499,369.8212959993L266.442158574775,369.5815994127L265.3984164762,368.8625096529L264.6884291184,367.814216353275L264.4517666658,366.5747726112L264.4517666658,340.7360874026L264.6884291184,339.498160727475L265.3984164762,338.4544186289L266.442158574775,337.7444312711L267.6800852499,337.5077688185L306.4441813308,337.5077688185ZM382.169096579275,337.762636075175L383.2128386779,338.4726234329L383.922826035625,339.51636553152497L384.1594884882,340.7542922066L383.922826035625,341.99221888172497L383.2128386779,343.0359609803L382.169096579275,343.7459483381L380.9311699042,343.9826107907L349.9769347588,343.9826107907L345.3893241393,348.5459483381L345.3893241393,350.4392479588L380.9311699042,350.4392479588L382.169096579275,350.6743933444001L383.2128386779,351.3798295012L383.922826035625,352.423571599825L384.1594884882,353.6614982749L384.1594884882,360.1424085151L383.9197919016,361.377301056175L383.2007021418,362.4119407528L376.7501332417,368.8625096529L375.709425277125,369.5815994127L374.456327932,369.8212959993L342.1670738233,369.8212959993L340.92914714815,369.58463354670005L339.8854050495,368.8746461889L339.175417691775,367.830904090325L338.9387552392,366.5929774152L339.175417691775,365.35505074012497L339.8854050495,364.3113086415L340.92914714815,363.6013212836999L342.1670738233,363.3646588311L373.1213089686,363.3646588311L377.7089195881,358.7831164797L377.7089195881,356.889816859L342.1670738233,356.889816859L340.92914714815,356.65315440640006L339.8854050495,355.9431670486L339.175417691775,354.899424949975L338.9387552392,353.6614982749L338.9387552392,347.2109293748L339.17693475880003,345.96996856565L339.8914733176,344.917124065L346.3481104857,338.4665551649L347.382750182275,337.761119008175L348.6176427234,337.5259736226L380.9311699042,337.5259736226ZM432.610973056225,337.741397137075L433.6456127528,338.4422820928L434.35104890954995,339.48299005745L434.5983308312,340.7360874026L434.5983308312,366.5747726112L434.3631854455999,367.814216353275L433.6577492888,368.8625096529L432.614007190225,369.5815994127L431.3760805151,369.8212959993L430.138153840025,369.5815994127L429.0944117414,368.8625096529L428.38442438359994,367.814216353275L428.147761931,366.5747726112L428.147761931,356.889816859L395.8524395543,356.889816859L395.8524395543,366.5747726112L395.6157771017,367.814216353275L394.9057897439,368.8625096529L393.86659884635003,369.5815994127L392.6301892383,369.8212959993L391.39226256315,369.5815994127L390.3485204645,368.8625096529L389.63853310677507,367.814216353275L389.4018706542,366.5747726112L389.4018706542,340.7360874026L389.63853310677507,339.498160727475L390.3485204645,338.4544186289L391.39226256315,337.7444312711L392.6301892383,337.5077688185L393.86659884635003,337.7444312711L394.9057897439,338.4544186289L395.6157771017,339.498160727475L395.8524395543,340.7360874026L395.8524395543,350.4392479588L428.147761931,350.4392479588L428.147761931,340.7360874026L428.38442438359994,339.498160727475L429.0944117414,338.4544186289L430.138153840025,337.7444312711L431.3760805151,337.5077688185ZM483.095327409275,337.7444312711L484.1390695079,338.4544186289L484.849056865625,339.498160727475L485.0857193182,340.7360874026L484.849056865625,341.974014077675L484.1390695079,343.0177561763L483.095327409275,343.723192333025L481.8574007342,343.9583377186L465.7036712778,343.9583377186L465.7036712778,363.3464540271L481.8574007342,363.3464540271L483.095327409275,363.5831164796999L484.1390695079,364.2931038375L484.849056865625,365.333811802075L485.0857193182,366.5747726112L484.849056865625,367.814216353275L484.1390695079,368.8625096529L483.095327409275,369.5815994127L481.8574007342,369.8212959993L443.0933046533,369.8212959993L441.85537797815,369.5815994127L440.8116358795,368.8625096529L440.101648521775,367.814216353275L439.8649860692,366.5747726112L440.101648521775,365.333811802075L440.8116358795,364.2931038375L441.85537797815,363.5831164796999L443.0933046533,363.3464540271L459.2470341096,363.3464540271L459.2470341096,343.9583377186L443.0933046533,343.9583377186L441.85537797815,343.723192333025L440.8116358795,343.0177561763L440.101648521775,341.974014077675L439.8649860692,340.7360874026L440.101648521775,339.498160727475L440.8116358795,338.4544186289L441.85537797815,337.7444312711L443.0933046533,337.5077688185L481.8574007342,337.5077688185ZM533.5584428242751,337.7444312711L534.6021849229,338.4544186289L535.312172280625,339.498160727475L535.5488347332,340.7360874026L535.312172280625,341.974014077675L534.6021849229,343.0177561763L533.5584428242751,343.723192333025L532.3205161492,343.9583377186L496.7786703843,343.9583377186L496.7786703843,350.4392479588L525.869947249,350.4392479588L527.107873924125,350.6743933444001L528.1516160227,351.3798295012L528.8616033804999,352.423571599825L529.0982658331,353.6614982749L528.8616033804999,354.899424949975L528.1516160227,355.9431670486L527.107873924125,356.65315440640006L525.869947249,356.889816859L496.7786703843,356.889816859L496.7786703843,363.3464540271L532.3205161492,363.3464540271L533.5584428242751,363.5831164796999L534.6021849229,364.2931038375L535.312172280625,365.333811802075L535.5488347332,366.5747726112L535.312172280625,367.814216353275L534.6021849229,368.8625096529L533.5584428242751,369.5815994127L532.3205161492,369.8212959993L493.5564200682,369.8212959993L492.318493393125,369.5815994127L491.2747512945,368.8625096529L490.56476393677497,367.814216353275L490.3281014842,366.5747726112L490.3281014842,340.7360874026L490.56476393677497,339.498160727475L491.2747512945,338.4544186289L492.318493393125,337.7444312711L493.5564200682,337.5077688185L532.3205161492,337.5077688185ZM545.255945091375,337.7444312711L546.295135989,338.4544186289L547.0051233468,339.498160727475L547.2417857994,340.7360874026L547.2417857994,363.3464540271L582.7654267602,363.3464540271L584.029143574325,363.60890661875L585.0653003379,364.3113086415L585.757082891625,365.338363003075L585.9876770762,366.5747726112L585.752531690625,367.814216353275L585.0470955339,368.8625096529L584.0033534352749,369.5815994127L582.7654267602,369.8212959993L544.0195354833,369.8212959993L542.781608808225,369.5815994127L541.7378667096,368.8625096529L541.0278793518,367.814216353275L540.7912168992,366.5747726112L540.7912168992,340.7360874026L541.0278793518,339.498160727475L541.7378667096,338.4544186289L542.781608808225,337.7444312711L544.0195354833,337.5077688185ZM621.560779848975,337.7474654051L622.6090731486,338.4665551649L635.5162792169,351.3737612332L636.2353689766999,352.422054532825L636.4750655633,353.6614982749L636.2353689766999,354.896390815975L635.5162792169,355.9310305126L622.5908683446,368.8625096529L621.5562286479751,369.5815994127L620.3213361069,369.8212959993L594.4826508983,369.8212959993L593.5982008351,369.698413572L592.8138771941,369.3297662901L592.1315763091438,368.7821051017312L591.644218534175,368.140385759125L591.3518038691938,367.4046082622813L591.2543323142,366.5747726112L591.2543323142,340.7360874026L591.4909947668,339.498160727475L592.2009821246,338.4544186289L593.244724223225,337.7444312711L594.4826508983,337.5077688185L620.3213361069,337.5077688185ZM597.7049012144,343.9583377186L597.7049012144,363.3464540271L618.9802488756,363.3464540271L628.6652046278,353.6614982749L618.9802488756,343.9583377186ZM426.0091214809,243.64282979680002L414.44150045771835,264.6471942863028L438.55044624460004,264.5450377364L464.6167290869,310.1610327103L412.361209238,311.2676201895L399.9193704077169,290.5652162341515L387.8933305323,311.6364826825L335.3919023547,311.3905743538L360.5975060466,265.65162521549996L384.7059571793959,265.1408529457789L372.5240599885,244.2576006186L398.9592053239,198.8875139733ZM363.0565893336,269.95502096779995L342.6461980514,307.0871786016L385.31129308100003,307.3330869303L394.9017179003,290.6113205786L388.86067022063844,290.483467717655L382.2374389722,302.0460578632L351.8677603777,301.9231036989L366.2533976067,275.2420500348L379.5301566728381,275.0189112269665L382.3603931366,269.58615847469997ZM416.91051331899996,269.0943418173L419.82638995601246,274.3813708844L433.1404630132,274.3813708844L448.140871064,300.6935620554L417.8941466338,301.5542412058L410.93677150230934,290.1082369572186L404.8610052127,290.3654122499L414.82029252499996,306.8412702729L457.23947922589997,305.98059112239997L436.0913629576,268.971387653ZM368.9583892224,279.5454457871L359.1220560744,297.6197079466L379.6554015209,297.6197079466L383.83060313362546,290.37701127136927L371.6633808381,290.11950392119996L377.2602859883393,279.37601932248896ZM422.19977791632147,278.6847666366L428.0993422749,289.3817789351L415.8422753977288,289.9005965806934L420.2302757565,297.1278912892L440.763621203,296.5131204674L430.5584255619,278.6847666366ZM388.72245507436077,266.76048779155764L378.79472237040005,285.93906233329994L397.37294726666295,286.3281351059957L420.8450465782,285.20133734719997L411.84391651893077,268.8623295221824L399.3280678169,249.2987213569ZM415.6809716755,283.1111165533L383.9587972731,283.1111165533L399.8198844743,255.5693837388ZM391.2130929698,278.9306749653L408.54963014320003,278.9306749653L399.94283863870004,263.9302669146ZM377.5651807269,244.2576006186L387.1556055462,260.8564128059L390.40706011460577,255.51473744354985L383.7128889444,244.1346464542L398.9592053239,217.9454094476L414.820292525,243.7657839612L408.425419622422,255.43362223967105L411.7464384163,260.6105044772L420.9680007426,243.7657839612L399.0821594882,207.3713513135ZM388.7540096828,244.1346464542L392.92739347878216,251.37418977385556L399.2051136526,241.0607923455L405.7494540663405,251.2622641669451L409.7791717867,243.8887381255L399.0821594882,226.4292467878Z"></path></svg>